<?xml version="1.0" encoding="iso-8859-1"?>
<!-- Uploaded to: SVG Repo, www.svgrepo.com, Generator: SVG Repo Mixer Tools -->
<svg height="20px" width="20px" version="1.1" id="Layer_1" xmlns="http://www.w3.org/2000/svg" xmlns:xlink="http://www.w3.org/1999/xlink" 
	 viewBox="0 0 511.98 511.98" xml:space="preserve">
<path style="fill:#4A89DC;" d="M460.143,407.702l-1.812-0.516c-26.469-7.108-35.405-13.921-47.187-18.421
	c-41.795-15.905-52.653-27.373-55.435-32.811c-0.109-0.188-0.188-0.406-0.281-0.594H156.553c-0.086,0.188-0.164,0.406-0.266,0.594
	c-2.781,5.438-13.647,16.905-55.436,32.811c-11.78,4.5-20.726,11.312-47.186,18.421l-1.82,0.516
	c-24.085,7.969-40.287,30.312-40.287,55.529v48.749h244.436h244.428v-48.749C500.423,438.014,484.235,415.671,460.143,407.702z"/>
<polygon style="fill:#CCD1D9;" points="253.331,389.156 184.248,427.811 255.995,511.98 324.648,415.139 "/>
<path style="fill:#E6E9ED;" d="M320.289,448.795l37.577-89.652c-1.016-1.219-1.703-2.281-2.156-3.188
	c-0.109-0.188-0.188-0.406-0.281-0.594l-0.343-48.529l-99.091-1.125l-99.098,1.125l-0.344,48.529l-0.008,0.031l37.069,93.09
	l63.185-52.607L320.289,448.795z"/>
<path style="fill:#EAC6BB;" d="M393.489,213.288c0,89.356-85.152,171.572-137.494,171.572c-52.326,0-137.503-82.216-137.503-171.572
	c0-89.34,61.561-148.283,137.503-148.283C331.929,65.006,393.489,123.948,393.489,213.288z"/>
<g>
	<polygon style="fill:#5D9CEC;" points="256.8,511.98 156.553,355.361 128.851,392.234 161.389,419.124 155.569,444.951 	"/>
	<polygon style="fill:#5D9CEC;" points="256.8,511.98 355.429,355.361 384.552,392.234 351.992,419.124 357.819,444.951 	"/>
</g>
<path style="fill:#4A89DC;" d="M368.021,31.913C336.945,11.336,297.166,0,255.995,0c-41.17,0-80.95,11.336-112.019,31.913
	c-30.968,20.515-48.733,47.521-48.733,74.098c0,26.101,18.844,49.967,53.045,67.201c29.952,15.085,69.208,23.733,107.707,23.733
	s77.747-8.648,107.715-23.733c34.186-17.234,53.028-41.1,53.028-67.201C416.738,79.434,398.989,52.428,368.021,31.913z"/>
<path style="fill:#5D9CEC;" d="M395.052,151.51c-0.719-2.602-18.656-63.693-139.057-63.693c-120.62,0-136.878,61.357-137.511,63.975
	c-0.772,3.171-0.039,6.531,1.984,9.101c2.023,2.57,5.109,4.07,8.383,4.07h255.903c3.328,0,6.453-1.547,8.469-4.188
	C395.239,158.142,395.927,154.713,395.052,151.51z"/>
<g>
	<path style="fill:#FFCE54;" d="M278.119,58.334c0,11.773-9.539,21.327-21.319,21.327c-11.773,0-21.327-9.554-21.327-21.327
		c0-11.781,9.554-21.327,21.327-21.327C268.58,37.007,278.119,46.553,278.119,58.334z"/>
	<path style="fill:#FFCE54;" d="M267.463,434.889c0,5.875-4.773,10.655-10.663,10.655c-5.883,0-10.664-4.78-10.664-10.655
		c0-5.906,4.781-10.672,10.664-10.672C262.689,424.218,267.463,428.983,267.463,434.889z"/>
</g>
<path style="fill:#434A54;" d="M394.864,150.924c-1.438-4.352-5.516-7.289-10.109-7.289H128.851c-4.594,0-8.664,2.938-10.117,7.289
	c-1.452,4.359,0.047,9.148,3.719,11.905L165.1,194.82c1.844,1.383,4.094,2.125,6.398,2.125h170.603c2.312,0,4.547-0.742,6.391-2.125
	l42.653-31.991C394.833,160.072,396.333,155.283,394.864,150.924z"/>
</svg>