<svg xmlns="http://www.w3.org/2000/svg" viewBox="0 0 64 64" width="64" height="64">
  <circle cx="32" cy="32" r="30" fill="#fff" stroke="#0a2c49" stroke-width="4"></circle>
  <path d="M20 20h24v24H20z" fill="none"></path>
  <path d="M32 16a8 8 0 0 1 8 8c0 4.5-8 14-8 14s-8-9.5-8-14a8 8 0 0 1 8-8zm0 11a3 3 0 1 0 0-6 3 3 0 0 0 0 6z" fill="#0a2c49"></path>
  <path d="M14 44l12-8 8 6 8-6 12 8" fill="none" stroke="#0a2c49" stroke-width="2"></path>
  <rect x="16" y="20" width="32" height="24" rx="2" ry="2" fill="none" stroke="#0a2c49" stroke-width="2"></rect>
</svg>
