<?xml version="1.0" encoding="iso-8859-1"?>
<!-- Uploaded to: SVG Repo, www.svgrepo.com, Generator: SVG Repo Mixer Tools -->
<svg version="1.1" id="Layer_1" xmlns="http://www.w3.org/2000/svg" xmlns:xlink="http://www.w3.org/1999/xlink" 
	width="25px" height="25px" viewBox="0 0 512 512" xml:space="preserve">
<path style="fill:#EB4E49;" d="M495.304,167.457v116.892H16.693V167.457c0-21.793,17.664-39.458,39.458-39.458h399.707
	C477.639,127.999,495.304,145.664,495.304,167.457z"/>
<path style="fill:#EFEFEF;" d="M495.304,284.349v177.064c0,21.793-17.664,39.458-39.446,39.458H56.151
	c-21.793,0-39.458-17.664-39.458-39.458V284.349L495.304,284.349L495.304,284.349z"/>
<path style="fill:#747D8C;" d="M310.637,11.13H201.364c-29.76,0-53.885,24.126-53.885,53.886v62.984h44.522V65.016
	c0-5.163,4.201-9.363,9.364-9.363h109.274c5.163,0,9.363,4.2,9.363,9.363v62.984h44.522V65.016
	C364.523,35.257,340.398,11.13,310.637,11.13z"/>
<polygon style="fill:#FBA026;" points="320.001,363.565 283.827,363.565 283.827,327.391 228.175,327.391 228.175,363.565 
	192.001,363.565 192.001,419.217 228.175,419.217 228.175,455.391 283.827,455.391 283.827,419.217 320.001,419.217 "/>
<g>
	<rect x="102.957" y="258.75" style="fill:#747D8C;" width="50.087" height="66.783"/>
	<rect x="358.958" y="258.75" style="fill:#747D8C;" width="50.087" height="66.783"/>
</g>
<g>
	<path style="fill:#231F20;" d="M506.437,455.391c0-0.014-0.002-0.028-0.002-0.043V167.457c0-27.895-22.69-50.589-50.577-50.589
		h-80.204V65.016C375.654,29.166,346.489,0,310.638,0H201.365c-35.85,0-65.016,29.166-65.016,65.016v51.851H56.15
		c-27.894,0-50.587,22.695-50.587,50.589v293.956C5.563,489.307,28.257,512,56.15,512h399.707c27.889,0,50.577-22.694,50.577-50.587
		v-5.979C506.435,455.419,506.437,455.406,506.437,455.391z M409.045,247.622h-50.087c-6.146,0-11.13,4.984-11.13,11.13v14.466
		H164.175v-14.466c0-6.146-4.984-11.13-11.13-11.13h-50.087c-6.146,0-11.13,4.984-11.13,11.13v14.466H27.824v-89.565h456.35v89.565
		h-63.998v-14.466C420.176,252.605,415.192,247.622,409.045,247.622z M397.915,269.883v44.522h-27.826v-44.522L397.915,269.883
		L397.915,269.883z M141.914,269.883v44.522h-27.826v-44.522L141.914,269.883L141.914,269.883z M158.609,65.016
		c0-23.575,19.18-42.756,42.756-42.756h109.274c23.575,0,42.754,19.18,42.754,42.756v51.851h-22.261V65.016
		c0-11.3-9.194-20.493-20.493-20.493H201.365c-11.301,0-20.495,9.194-20.495,20.493v51.851h-22.261L158.609,65.016L158.609,65.016z
		 M203.131,116.868V66.784h105.74v50.084H203.131z M56.15,139.129h399.707c13.534,0,24.873,9.549,27.656,22.264H28.484
		C31.269,148.678,42.612,139.129,56.15,139.129z M455.858,489.739H56.15c-13.875,0-25.443-10.03-27.856-23.217h120.321
		c6.146,0,11.13-4.984,11.13-11.13s-4.984-11.13-11.13-11.13H27.824V295.48h64.003v30.056c0,6.146,4.984,11.13,11.13,11.13h50.087
		c6.146,0,11.13-4.984,11.13-11.13V295.48h183.653v30.056c0,6.146,4.984,11.13,11.13,11.13h50.087c6.146,0,11.13-4.984,11.13-11.13
		V295.48h63.998v148.781h-58.039c-6.146,0-11.13,4.984-11.13,11.13s4.984,11.13,11.13,11.13h57.568
		C481.291,479.709,469.728,489.739,455.858,489.739z"/>
	<path style="fill:#231F20;" d="M320.001,352.435h-25.044v-25.044c0-6.146-4.984-11.13-11.13-11.13h-55.652
		c-6.146,0-11.13,4.984-11.13,11.13v25.044h-25.044c-6.146,0-11.13,4.984-11.13,11.13v55.652c0,6.146,4.984,11.13,11.13,11.13
		h25.044v25.044c0,6.146,4.984,11.13,11.13,11.13h55.652c6.146,0,11.13-4.984,11.13-11.13v-25.044h25.044
		c6.146,0,11.13-4.984,11.13-11.13v-55.652C331.132,357.418,326.148,352.435,320.001,352.435z M308.871,408.087h-25.044
		c-6.146,0-11.13,4.984-11.13,11.13v25.044h-33.391v-25.044c0-6.146-4.984-11.13-11.13-11.13h-25.044v-33.391h25.044
		c6.146,0,11.13-4.984,11.13-11.13v-25.044h33.391v25.044c0,6.146,4.984,11.13,11.13,11.13h25.044V408.087z"/>
	<path style="fill:#231F20;" d="M371.782,444.261h-1.113c-6.146,0-11.13,4.984-11.13,11.13c0,6.146,4.984,11.13,11.13,11.13h1.113
		c6.146,0,11.13-4.984,11.13-11.13C382.912,449.245,377.928,444.261,371.782,444.261z"/>
</g>
</svg>