<?xml version="1.0" encoding="iso-8859-1"?>
<!-- Uploaded to: SVG Repo, www.svgrepo.com, Generator: SVG Repo Mixer Tools -->
<svg  width="25px" height="25px"  version="1.1" id="Layer_1" xmlns="http://www.w3.org/2000/svg" xmlns:xlink="http://www.w3.org/1999/xlink" 
	 viewBox="0 0 512 512" xml:space="preserve">
<polygon style="fill:#A0F6FA;" points="512,0 456.302,0 279.87,176.431 271.914,216.216 228.151,228.151 133.219,323.082 
	153.112,390.716 "/>
<polygon style="fill:#78E3EC;" points="512,0 307.72,204.28 279.87,176.431 232.13,224.173 259.979,252.022 161.068,350.932 
	133.219,323.082 101.392,354.909 157.091,410.608 512,55.698 "/>
<path style="fill:#E02E00;" d="M196.875,434.479l-47.741-47.741l-19.893,3.979l-3.979,19.893l23.87,23.87
	c-13.184,13.184-13.184,34.558,0,47.741c13.184,13.184,34.557,13.184,47.741,0C210.058,469.037,210.058,447.662,196.875,434.479z"/>
<path style="fill:#FF4719;" d="M77.521,315.125c-13.184-13.184-34.558-13.184-47.741,0c-13.184,13.184-13.184,34.558,0,47.741
	c13.184,13.184,34.558,13.184,47.741,0l23.87,23.87l-75.489,75.489l23.87,23.87l99.361-99.361L77.521,315.125z"/>
<path style="fill:#E02E00;" d="M57.629,454.371l-31.827,15.914L9.888,502.112c13.184,13.184,34.558,13.184,47.741,0
	C70.812,488.929,70.812,467.555,57.629,454.371z"/>
<path style="fill:#FF4719;" d="M9.888,454.371c-13.184,13.184-13.184,34.558,0,47.741l47.741-47.741
	C44.445,441.188,23.072,441.188,9.888,454.371z"/>
<polygon style="fill:#D0FBFD;" points="0,0 0,55.698 323.082,378.781 390.716,358.888 "/>
<polygon style="fill:#A0F6FA;" points="0,0 350.932,350.932 323.082,378.781 354.911,410.608 410.608,354.909 55.699,0 "/>
<path style="fill:#FF4719;" d="M434.479,315.125l-47.741,47.741l3.979,19.893l19.893,3.979l23.87-23.87
	c13.184,13.184,34.558,13.184,47.741,0c13.184-13.184,13.184-34.557,0-47.741C469.037,301.942,447.662,301.942,434.479,315.125z"/>
<path style="fill:#FF754F;" d="M386.738,410.608l-23.87,23.87c13.184,13.184,13.184,34.558,0,47.741
	c-13.184,13.184-34.558,13.184-47.741,0c-13.184-13.184-13.184-34.558,0-47.741l71.613-71.613l99.361,99.361l-23.87,23.87
	L386.738,410.608z"/>
<path style="fill:#FF4719;" d="M454.371,454.371l15.914,31.827l31.827,15.914c13.184-13.184,13.184-34.558,0-47.741
	C488.929,441.188,467.555,441.188,454.371,454.371z"/>
<path style="fill:#FF754F;" d="M454.371,502.112c13.184,13.184,34.558,13.184,47.741,0l-47.741-47.741
	C441.188,467.555,441.188,488.93,454.371,502.112z"/>
<circle style="fill:#FFFFFF;" cx="53.651" cy="339" r="8.44"/>
<circle style="fill:#FFDB8A;" cx="173" cy="458.347" r="8.44"/>
<circle style="fill:#FFCD60;" cx="458.347" cy="339" r="8.44"/>
<circle style="fill:#FFFFFF;" cx="339" cy="458.347" r="8.44"/>
</svg>